<svg width="89" height="97" viewBox="0 0 89 97" fill="none" xmlns="http://www.w3.org/2000/svg">
<path d="M29.7966 38.3701C26.3931 38.3701 23.6237 41.1061 23.5681 44.4984C21.9665 45.3548 20.3982 46.1668 18.8077 46.9453C17.4397 47.6238 17.0838 48.4691 17.0504 49.8927C16.8836 56.7997 16.6167 63.7066 16.3831 70.6135C16.3386 72.0261 16.2941 73.4386 16.2274 75.3627C14.7592 74.5286 13.8027 73.8612 12.7572 73.4052C9.88769 72.1595 8.92005 70.1686 9.22035 66.9877C9.68749 62.1384 9.63187 57.2446 9.80983 51.917C8.28608 52.6844 7.21834 53.3629 6.06163 53.7744C3.73707 54.5975 3.05861 56.1434 3.1031 58.557C3.16983 62.8279 3.003 67.11 2.68045 71.3587C2.5025 73.7166 3.01412 75.2293 5.26082 76.3749C8.07476 77.8208 10.6774 79.6893 13.3801 81.3576C16.194 83.1038 19.0191 84.8389 22.2445 86.8298C22.3001 85.306 22.3335 84.3273 22.3558 83.3596C22.6561 74.5508 23.1454 65.7308 23.1454 56.922C23.1454 53.5964 23.8573 51.3053 26.6267 49.9483C27.561 50.5045 28.651 50.827 29.8077 50.827C33.2445 50.827 36.0361 48.0353 36.0361 44.5985C36.0361 41.1617 33.2333 38.3701 29.7966 38.3701ZM29.7966 48.0464H29.7521C27.8724 48.0242 26.3598 46.4893 26.3598 44.5985C26.3598 43.8978 26.5711 43.2527 26.927 42.7077C27.5387 41.7735 28.6065 41.1506 29.8077 41.1506H29.8188C30.1413 41.1506 30.4416 41.1951 30.7419 41.273C32.1878 41.6845 33.2556 43.0192 33.2556 44.5985C33.2445 46.5004 31.6985 48.0464 29.7966 48.0464Z" fill="url(#paint0_linear_3_46)"/>
<path d="M39.9178 27.0254C38.6944 27.0254 37.5599 27.3813 36.5923 27.993C35.4022 27.2256 34.2455 26.4581 33.0888 25.6796C31.8319 24.8232 30.9088 24.9233 29.652 25.5906C23.557 28.8383 17.4064 31.9859 11.2669 35.1669C10.01 35.8231 8.76435 36.4682 7.05152 37.358C7.06264 35.6674 7.17387 34.5107 7.06264 33.3762C6.7401 30.2731 7.99691 28.4379 10.9221 27.1477C15.371 25.1791 19.6086 22.7322 24.3466 20.2742C22.9341 19.3176 21.8219 18.7282 20.8876 17.9162C19.0302 16.2924 17.3507 16.4592 15.2709 17.6827C11.5894 19.8404 7.77447 21.7868 3.90392 23.5886C1.76844 24.5896 0.689581 25.7797 0.789681 28.2933C0.912026 31.4632 0.556114 34.633 0.422647 37.814C0.278057 41.1284 0.155712 44.4429 0 48.2244C1.34579 47.5237 2.21333 47.0788 3.08087 46.6228C10.8998 42.5632 18.83 38.6704 26.5044 34.3438C29.1737 32.8423 31.3648 32.2973 33.6782 33.5764C33.8339 36.8686 36.57 39.5046 39.8956 39.5046C43.3324 39.5046 46.1241 36.7129 46.1241 33.2761C46.1241 29.8393 43.3546 27.0254 39.9178 27.0254ZM43.3546 33.5653C43.1989 35.3226 41.7196 36.7018 39.9178 36.7018C38.9947 36.7018 38.1494 36.3347 37.5265 35.7341C36.8703 35.1113 36.4699 34.2215 36.4699 33.2538C36.4699 31.4965 37.7824 30.0506 39.4841 29.8282C39.6287 29.8059 39.7732 29.7948 39.9178 29.7948C41.4416 29.7948 42.7429 30.7958 43.1989 32.175C43.3101 32.5087 43.3657 32.8757 43.3657 33.2427C43.3657 33.3539 43.3657 33.4652 43.3546 33.5653ZM63.8307 84.6054C56.2898 80.023 48.8601 75.2738 41.1746 70.9584C38.294 69.3345 36.6479 67.6105 36.8036 64.5742C38.8946 63.5732 40.3405 61.4266 40.3405 58.9574C40.3405 55.5206 37.5488 52.7289 34.112 52.7289C30.6752 52.7289 27.8835 55.5206 27.8835 58.9574C27.8835 61.0818 28.9513 62.9503 30.5751 64.0737C30.5306 66.0423 30.475 67.9442 30.3749 69.835C30.2971 71.3588 30.8532 72.0928 32.0766 72.8158C38.0159 76.3415 43.8996 79.9674 49.8055 83.5488C51.0067 84.2828 52.2191 85.0169 53.8652 86.0179C52.4193 86.8854 51.3626 87.3859 50.4617 88.0755C47.9704 89.9663 45.757 89.8328 43.1322 88.0088C39.1393 85.2282 34.8461 82.8814 30.2859 80.112C30.2081 81.8137 30.2748 83.0816 30.0635 84.294C29.6409 86.7186 30.653 88.0644 32.7773 89.2211C36.5255 91.2565 40.1736 93.5032 43.7328 95.8722C45.7014 97.1847 47.2696 97.4738 49.3718 96.0836C52.0189 94.3374 54.9218 92.9916 57.7023 91.4567C60.6053 89.8551 63.5082 88.2535 66.8226 86.4183C65.4991 85.6175 64.6649 85.1059 63.8307 84.6054ZM34.112 62.4053C32.2546 62.4053 30.7308 60.9261 30.6641 59.0798V58.9574C30.6641 58.8796 30.6641 58.8128 30.6752 58.735V58.7127C30.7308 57.9787 31.0089 57.3113 31.4427 56.7775C32.0766 55.9989 33.0331 55.5095 34.112 55.5095C36.0139 55.5095 37.5599 57.0555 37.5599 58.9574C37.5599 59.7805 37.2707 60.5479 36.7813 61.1374C36.1363 61.9159 35.1797 62.4053 34.112 62.4053Z" fill="url(#paint1_linear_3_46)"/>
<path d="M88.2775 47.3568C86.9539 48.102 86.0975 48.5803 85.2522 49.0585C77.5667 53.3851 69.7811 57.5337 62.2513 62.1161C59.5153 63.7844 57.2574 64.385 54.766 62.9391C54.7883 62.7278 54.7994 62.5165 54.7994 62.294C54.7994 58.8572 52.0077 56.0655 48.5709 56.0655C45.1342 56.0655 42.3425 58.8572 42.3425 62.294C42.3425 65.7308 45.1342 68.5225 48.5709 68.5225C49.4607 68.5225 50.306 68.3334 51.0735 67.9998C52.7529 69.0008 54.3768 69.9795 55.9784 70.9916C57.2686 71.8036 58.1806 71.6812 59.4152 70.9694C65.3989 67.5215 71.4383 64.1626 77.4666 60.7814C78.7012 60.0918 79.9246 59.3911 81.6041 58.4568C81.6486 60.1474 81.5707 61.3041 81.7264 62.4386C82.1491 65.5306 80.959 67.3991 78.0783 68.8005C73.6961 70.9249 69.5475 73.5053 64.8984 76.1301C66.3443 77.031 67.4788 77.5983 68.4353 78.3768C70.3484 79.9339 72.0167 79.7115 74.0521 78.4213C77.6557 76.1412 81.4039 74.0614 85.2188 72.1372C87.3209 71.0695 88.3553 69.8349 88.1662 67.3324C87.9438 64.1737 88.1885 60.9816 88.2107 57.8006C88.233 54.4528 88.2441 51.1384 88.2775 47.3568ZM48.5709 65.7419C47.1028 65.7419 45.846 64.8188 45.3455 63.5175C45.2009 63.1393 45.123 62.7278 45.123 62.294C45.123 60.3921 46.669 58.8461 48.5709 58.8461C50.0947 58.8461 51.396 59.8471 51.852 61.2152C51.9632 61.5488 52.0188 61.9159 52.0188 62.294C52.0188 64.1959 50.4617 65.7419 48.5709 65.7419Z" fill="url(#paint2_linear_3_46)"/>
<path d="M84.8407 37.1244C84.6293 32.8646 84.6516 28.5825 84.8295 24.3116C84.9296 21.9537 84.3624 20.4521 82.0823 19.3844C79.2128 18.0386 76.5546 16.259 73.7962 14.6686C70.9267 13.0113 68.0349 11.3764 64.7538 9.4967V12.978C64.7538 21.7979 64.5536 30.6179 64.8539 39.4267C64.9652 42.541 64.409 44.7654 62.1067 46.2224C61.1947 45.6997 60.127 45.3883 59.0036 45.3883C55.5668 45.3883 52.7751 48.18 52.7751 51.6167C52.7751 55.0535 55.5668 57.8452 59.0036 57.8452C62.4404 57.8452 65.2321 55.0535 65.2321 51.6279C66.6669 50.8048 68.0794 50.004 69.5142 49.2477C70.86 48.5248 71.1936 47.6683 71.1714 46.2447C71.1047 39.3378 71.138 32.4308 71.138 25.5239V20.7747C72.6284 21.5644 73.6072 22.1983 74.6638 22.6099C77.5667 23.7555 78.6122 25.713 78.412 28.9051C78.1117 33.7655 78.3341 38.6482 78.3341 43.9869C79.8245 43.1749 80.87 42.452 82.0267 42.0071C84.3402 41.0951 84.963 39.5268 84.8407 37.1244ZM61.8398 53.5965C61.2726 54.3973 60.3828 54.9423 59.3595 55.0424C59.2483 55.0535 59.1371 55.0535 59.0259 55.0535C58.5921 55.0535 58.1806 54.9757 57.8024 54.8311C56.5011 54.3417 55.578 53.0738 55.578 51.6056C55.578 49.7593 57.035 48.2467 58.859 48.1577H59.0259C60.9278 48.1577 62.4738 49.7037 62.4738 51.6056C62.4738 52.3508 62.2402 53.0404 61.8398 53.5965Z" fill="url(#paint3_linear_3_46)"/>
<path d="M58.3029 32.5753C58.403 30.9181 58.5142 29.2943 58.6477 27.6815C58.7812 26.1689 58.2473 25.4126 57.0461 24.6452C51.2292 20.9192 45.4678 17.1043 39.6842 13.3227C38.5053 12.5441 37.3152 11.7767 35.7136 10.7201C37.1928 9.89703 38.2606 9.42989 39.1837 8.77368C41.7419 6.97187 43.9441 7.17207 46.5133 9.0851C50.4172 11.9991 54.6214 14.4905 59.0815 17.4157C59.2149 15.714 59.1927 14.4572 59.4485 13.2448C59.949 10.8313 58.9814 9.45214 56.9015 8.23981C53.22 6.08209 49.6498 3.71304 46.1796 1.23278C44.2666 -0.146384 42.6984 -0.491175 40.5518 0.832376C37.8491 2.48959 34.9017 3.74641 32.0766 5.18118C29.1181 6.68269 26.1707 8.19532 22.8006 9.90815C24.0686 10.7423 24.8916 11.2762 25.7147 11.8101C33.0887 16.6371 40.3627 21.6421 47.9036 26.2134C50.5841 27.8484 52.1523 29.539 52.0856 32.2973C50.0947 33.3317 48.7266 35.4226 48.7266 37.8251C48.7266 41.2618 51.5183 44.0535 54.9551 44.0535C58.3919 44.0535 61.1836 41.2618 61.1836 37.8251C61.1613 35.6228 60.0158 33.6876 58.3029 32.5753ZM57.9359 39.5156C57.6912 39.9383 57.3686 40.3053 56.9682 40.5945C56.401 41.0171 55.6892 41.2618 54.9329 41.2618C53.031 41.2618 51.485 39.7158 51.485 37.8139C51.485 37.1911 51.6518 36.6127 51.9299 36.1122C52.5193 35.0667 53.6427 34.366 54.9329 34.366C56.3454 34.366 57.5577 35.2113 58.0916 36.4348C58.2807 36.8574 58.3808 37.3246 58.3808 37.8139C58.3808 38.4368 58.2139 39.0151 57.9359 39.5156Z" fill="url(#paint4_linear_3_46)"/>
<defs>
<linearGradient id="paint0_linear_3_46" x1="-17.8994" y1="40.0733" x2="12.3605" y2="54.1837" gradientUnits="userSpaceOnUse">
<stop stop-color="#920DE9"/>
<stop offset="1" stop-color="#1536F1"/>
</linearGradient>
<linearGradient id="paint1_linear_3_46" x1="-11.1545" y1="19.3431" x2="49.4074" y2="47.5835" gradientUnits="userSpaceOnUse">
<stop stop-color="#920DE9"/>
<stop offset="1" stop-color="#1536F1"/>
</linearGradient>
<linearGradient id="paint2_linear_3_46" x1="14.278" y1="64.9936" x2="55.9092" y2="84.4066" gradientUnits="userSpaceOnUse">
<stop stop-color="#920DE9"/>
<stop offset="1" stop-color="#1536F1"/>
</linearGradient>
<linearGradient id="paint3_linear_3_46" x1="39.7336" y1="35.0898" x2="68.8081" y2="48.6474" gradientUnits="userSpaceOnUse">
<stop stop-color="#920DE9"/>
<stop offset="1" stop-color="#1536F1"/>
</linearGradient>
<linearGradient id="paint4_linear_3_46" x1="16.5809" y1="13.8151" x2="51.3677" y2="30.0364" gradientUnits="userSpaceOnUse">
<stop stop-color="#920DE9"/>
<stop offset="1" stop-color="#1536F1"/>
</linearGradient>
</defs>
</svg>
